<?xml version="1.0" encoding="UTF-8" standalone="no"?>
<!-- Created with Inkscape (http://www.inkscape.org/) -->

<svg
   xmlns:dc="http://purl.org/dc/elements/1.1/"
   xmlns:cc="http://creativecommons.org/ns#"
   xmlns:rdf="http://www.w3.org/1999/02/22-rdf-syntax-ns#"
   xmlns:svg="http://www.w3.org/2000/svg"
   xmlns="http://www.w3.org/2000/svg"
   xmlns:sodipodi="http://sodipodi.sourceforge.net/DTD/sodipodi-0.dtd"
   xmlns:inkscape="http://www.inkscape.org/namespaces/inkscape"
   width="200"
   height="165.116"
   viewBox="0 0 52.916665 43.686942"
   version="1.1"
   id="svg842"
   inkscape:version="0.92.4 (5da689c313, 2019-01-14)"
   sodipodi:docname="neanias_logo.svg">
  <defs
     id="defs836" />
  <sodipodi:namedview
     id="base"
     pagecolor="#ffffff"
     bordercolor="#666666"
     borderopacity="1.0"
     inkscape:pageopacity="0.0"
     inkscape:pageshadow="2"
     inkscape:zoom="1.979899"
     inkscape:cx="88.284204"
     inkscape:cy="144.11457"
     inkscape:document-units="mm"
     inkscape:current-layer="layer1"
     showgrid="false"
     units="px"
     inkscape:window-width="2400"
     inkscape:window-height="1421"
     inkscape:window-x="2391"
     inkscape:window-y="-9"
     inkscape:window-maximized="1"
     showborder="true"
     inkscape:showpageshadow="false" />
  <metadata
     id="metadata839">
    <rdf:RDF>
      <cc:Work
         rdf:about="">
        <dc:format>image/svg+xml</dc:format>
        <dc:type
           rdf:resource="http://purl.org/dc/dcmitype/StillImage" />
        <dc:title></dc:title>
      </cc:Work>
    </rdf:RDF>
  </metadata>
  <g
     inkscape:label="Layer 1"
     inkscape:groupmode="layer"
     id="layer1"
     transform="translate(0,-253.31305)">
    <g
       id="g1467"
       transform="matrix(0.28098202,0,0,0.28098202,17.840845,194.48349)">
      <path
         inkscape:export-ydpi="26.955259"
         inkscape:export-xdpi="26.955259"
         id="path864"
         d="m 83.830455,344.08086 c -6.24008,5.49216 -11.33812,9.04786 -17.41481,12.1462 -2.97851,1.51867 -7.78861,3.6516 -8.7547,3.8821 -0.27041,0.0645 -0.57411,0.17848 -0.67489,0.25326 -0.31279,0.23208 -5.61265,1.80066 -7.99547,2.36637 -3.60705,0.85636 -6.97448,1.42293 -10.96968,1.84563 -2.423405,0.25641 -9.908015,0.36857 -12.551816,0.1881 l 5e-5,2e-4 c -9.036812,-0.61687 -18.8432436,-3.07031 -26.7527826,-6.69321 -15.4264544,-7.06594 -27.6533324,-18.22183 -35.8818284,-32.73884 -2.230652,-3.9354 -4.668549,-9.2419 -4.378939,-9.53151 0.08855,-0.0885 1.255402,-0.13789 2.593015,-0.10965 l 2.432023,0.0513 1.052285,2.23864 c 9.034446,19.21998 25.8529084,33.5035 46.314804,39.33403 3.949147,1.1253 8.523566,1.99785 13.099968,2.49875 2.486875,0.2722 10.603106,0.27469 13.248691,0.004 19.25995,-1.97011 36.17403,-10.63526 48.66138,-24.92942 4.2396,-4.85304 7.65789,-10.07167 10.71483,-16.35811 l 1.40651,-2.89238 1.7521,0.0523 c 1.265205,0.0973 3.389325,-0.004 3.339335,0.22459 -1.40932,3.49397 -3.401335,7.55353 -5.481165,11.05774 -1.81583,3.01918 -4.11607,6.33411 -6.20153,8.93725 z"
         style="fill:#fdc314;fill-opacity:1;stroke:none;stroke-width:0.18323821"
         inkscape:connector-curvature="0" />
      <path
         inkscape:export-ydpi="26.955259"
         inkscape:export-xdpi="26.955259"
         id="path862"
         d="m 25.652368,359.42776 c -13.502722,-1.08597 -25.33369957,-5.21083 -36.097921,-12.58549 -8.255646,-5.65602 -15.110445,-12.8257 -20.53797,-21.48141 -1.586116,-2.5295 -4.840525,-8.82808 -4.840525,-9.36835 0,-0.31892 0.179022,-0.34327 2.523561,-0.34327 h 2.523559 l 0.976297,1.96306 c 2.167152,4.35754 5.310491,9.09057 8.796864,13.24571 1.769978,2.10951 7.010188,7.18565 9.358566,9.06555 11.97489143,9.58608 27.223868,14.94438 42.510681,14.93774 2.642129,-0.002 7.618345,-0.43262 10.635075,-0.92213 14.25453,-2.31304 27.43645,-9.1484 37.47728,-19.43348 5.33699,-5.46681 9.25452,-10.92345 12.38667,-17.25312 l 0.79339,-1.60333 h 2.35208 c 0.5776,0.11667 2.50821,-0.0874 2.75249,0.14933 0.0257,0.5357 -3.08053,6.66023 -4.6761,9.19404 -1.96337,3.11783 -4.108,6.09945 -6.15066,8.55108 -8.72323,10.46967 -20.03958,18.12335 -33.27403,22.5045 -8.44017,2.79405 -18.865155,4.07478 -27.509256,3.37957 z"
         style="fill:#94d55b;fill-opacity:1;stroke:none;stroke-width:0.18323821"
         inkscape:connector-curvature="0" />
      <path
         inkscape:export-ydpi="26.955259"
         inkscape:export-xdpi="26.955259"
         id="path860"
         d="m 26.018848,354.20014 c -1.904085,-0.14792 -5.754703,-0.65261 -7.696004,-1.0087 -2.20771,-0.40496 -6.892573,-1.54405 -7.385802,-1.79581 -0.170611,-0.0871 -0.804944,-0.29952 -1.4096306,-0.47207 -0.604687,-0.17255 -2.253829,-0.76864 -3.664765,-1.32465 -13.342149,-5.25777 -24.9563844,-15.01397 -32.5623714,-27.35309 -1.655186,-2.68519 -3.496477,-6.19537 -3.392273,-6.46692 0.09952,-0.25933 4.658055,-0.42297 5.008282,-0.17979 0.112273,0.078 0.641082,0.92509 1.175136,1.88251 9.111541,16.33472 25.4476674,27.92804 43.880569,31.14091 3.870677,0.67465 5.96646,0.83303 10.90267,0.82387 3.945659,-0.008 5.422521,-0.0852 7.879246,-0.41532 17.67664,-2.37547 33.3027,-11.95804 43.51257,-26.68377 1.06123,-1.53063 2.67934,-4.18113 3.29869,-5.40336 0.74623,-1.47263 0.71143,-1.45801 3.38193,-1.42 1.30137,0.0184 2.43433,0.102 2.51772,0.18552 0.33312,0.33364 -3.45544,6.92219 -6.05907,10.5371 -4.64923,6.45505 -10.71324,12.3401 -17.15049,16.64434 -8.95419,5.9872 -18.52435,9.54578 -29.50135,10.96984 -2.18848,0.28391 -10.572866,0.50735 -12.735057,0.33939 z"
         style="fill:#02aeee;fill-opacity:1;stroke:none;stroke-width:0.18323821"
         inkscape:connector-curvature="0" />
      <path
         inkscape:export-ydpi="26.955259"
         inkscape:export-xdpi="26.955259"
         id="path858"
         d="m 39.273995,347.1329 c -0.36902,-0.0983 -1.01927,-0.47682 -1.44499,-0.84122 -2.156525,-1.84592 -1.921437,-5.13722 0.48462,-6.78448 l 0.56751,-0.38854 -1.07255,-4.45099 C 35.609898,325.54316 33.44,316.24045 33.44,315.93879 c 0,-0.24746 0.139568,-0.29996 0.677379,-0.2548 l 0.677381,0.0569 0.673748,2.84019 c 0.370551,1.5621 1.607167,6.77753 2.748027,11.58982 2.0671,8.71934 2.07591,8.74963 2.54269,8.75064 1.40767,0.003 2.83411,0.90861 3.50604,2.22572 1.27906,2.50714 -0.0762,5.43066 -2.82394,6.09194 -0.51885,0.0938 -0.68307,0.10829 -1.22152,0.079 -0.15098,-0.008 -0.57678,-0.0869 -0.94581,-0.18521 z"
         style="fill:#bebebe;fill-opacity:1;stroke:none;stroke-width:0.18323821"
         inkscape:connector-curvature="0" />
      <path
         inkscape:export-ydpi="26.955259"
         inkscape:export-xdpi="26.955259"
         id="path856"
         d="m 18.870793,329.66275 c -0.200999,1.94505 -1.698241,4.20775 -3.585744,5.41896 -2.041679,1.31014 -4.980464,1.65389 -7.3200866,0.85624 h -3e-6 c -1.926185,-0.65671 -3.515923,-1.99638 -4.542644,-3.82808 -0.464738,-0.82912 -0.954792,-2.44024 -0.93431,-3.07169 l 0.09153,-2.39465 h 5e-6 c 0.139189,-1.459 1.161857,-3.42505 2.381687,-4.57871 1.111967,-1.05166 2.618634,-1.71896 4.10809,-2.10494 0.798658,-0.20697 1.6493136,-0.11561 2.4737156,-0.0832 0.307092,0.0121 0.916189,0.10323 0.916189,0.10323 0.503907,0.0568 1.048668,0.17412 1.210577,0.26076 0.238432,0.12759 0.570251,-0.28509 1.745747,-2.17114 l 1.451362,-2.32866 0.773776,-0.0564 c 0.465791,-0.0339 0.77378,0.0223 0.77378,0.14115 0,0.10863 -0.707883,1.3256 -1.573073,2.70439 -1.472051,2.34589 -1.551482,2.52249 -1.236858,2.74983 1.65843,1.1983 3.134746,3.46125 3.329257,5.34452 0.07875,1.11069 0.04811,1.96318 -0.06299,3.0384 z"
         style="fill:#bebebe;fill-opacity:1;stroke:none;stroke-width:0.18323821"
         inkscape:connector-curvature="0" />
      <path
         inkscape:export-ydpi="26.955259"
         inkscape:export-xdpi="26.955259"
         id="path854"
         d="m 58.526725,322.61228 c -0.28366,1.50647 -1.99152,3.51495 -3.50466,3.46877 l -1.24265,-0.01 c -0.25195,0.008 -0.78862,-0.13543 -1.19262,-0.31896 h 2e-5 c -1.15217,-0.52342 -2.31394,-2.01528 -2.27599,-2.92267 l -0.005,-1.65536 c -0.004,-0.23672 0.12815,-0.71738 0.29458,-1.06811 l 0.30261,-0.63771 -1.6769,-1.6839 c -0.92229,-0.92615 -1.6769,-1.78543 -1.6769,-1.90952 0,-0.14531 0.29426,-0.22559 0.82688,-0.22559 0.79129,0 0.88479,0.0605 2.17332,1.40439 l 1.34647,1.4044 0.76218,-0.30497 c 0.4192,-0.16773 0.90483,-0.29915 1.07915,-0.29206 0.36325,-0.0127 0.60033,-0.10955 1.20728,0.0402 0.18735,-0.0482 0.70183,0.0503 1.1433,0.21891 1.31881,0.84732 2.81578,2.71489 2.43894,4.49218 z"
         style="fill:#bebebe;fill-opacity:1;stroke:none;stroke-width:0.18323821"
         inkscape:connector-curvature="0" />
      <path
         inkscape:export-ydpi="26.955259"
         inkscape:export-xdpi="26.955259"
         id="path852"
         d="m 110.58317,309.11673 c -2.04787,-0.16483 -6.09927,-1.02422 -6.55078,-1.38955 -0.15026,-0.12158 -0.22905,-0.71335 -0.22905,-1.72041 0,-1.77446 -0.0941,-1.71619 1.88051,-1.16473 3.07506,0.85881 6.99557,1.15593 9.39636,0.71213 1.51435,-0.27995 3.20961,-1.09315 4.06775,-1.95128 1.51684,-1.51685 2.26768,-4.20525 1.90513,-6.82146 -0.48496,-3.49955 -2.40402,-5.25631 -7.81298,-7.15227 -3.19364,-1.11943 -5.16527,-2.19217 -6.7511,-3.67317 -2.25357,-2.10459 -3.09558,-4.2173 -3.10021,-7.779 -0.004,-3.42417 0.79867,-5.61204 2.7933,-7.60928 1.3675,-1.36927 2.7777,-2.17479 4.86558,-2.77925 1.30755,-0.37853 1.84102,-0.4225 5.12424,-0.42224 2.85947,1.9e-4 4.00676,0.074 5.22114,0.33529 0.85602,0.18426 1.66309,0.42358 1.79354,0.53184 0.16706,0.13864 0.22154,0.63529 0.18439,1.68032 l -0.0528,1.4835 -0.54972,-0.0184 c -0.30235,-0.0101 -1.16813,-0.16215 -1.92401,-0.33776 -1.9925,-0.46291 -5.97698,-0.57804 -7.65193,-0.2211 -2.86304,0.61013 -4.50424,1.78219 -5.51023,3.93514 -0.44095,0.94368 -0.48594,1.24335 -0.48594,3.23876 0,2.02401 0.0408,2.2863 0.51286,3.29828 0.99027,2.12297 2.72423,3.28903 7.36324,4.95168 3.23398,1.15907 5.01031,2.13006 6.59198,3.60328 1.35372,1.26091 2.23275,2.62685 2.77297,4.30899 0.43315,1.34882 0.53424,4.98747 0.18476,6.65093 -0.84791,4.03597 -3.74475,6.87964 -8.00641,7.85946 -1.54593,0.35543 -4.48554,0.57488 -6.03263,0.45036 z"
         style="fill:#000000;stroke:none;stroke-width:0.18323821"
         inkscape:connector-curvature="0" />
      <path
         inkscape:export-ydpi="26.955259"
         inkscape:export-xdpi="26.955259"
         id="path850"
         d="m -63.448001,288.21618 0.0466,-20.48376 h 1.820405 1.820407 l 0.579415,1.00781 c 0.524768,0.91276 5.679938,9.99594 12.687637,22.35506 1.457159,2.56992 3.443802,6.07248 4.414765,7.78347 l 1.765385,3.1109 0.09162,-17.12862 0.09162,-17.12862 h 1.649144 1.649144 l 0.0466,20.47687 0.0466,20.47687 h -1.891057 -1.891053 l -0.432584,-0.77876 c -0.237922,-0.42832 -1.719139,-3.04634 -3.291594,-5.81781 -1.572451,-2.77148 -5.74259,-10.12517 -9.266969,-16.34152 l -6.407963,-11.30248 -0.09162,17.07448 -0.09162,17.07448 -1.695747,0.0527 -1.695749,0.0527 z"
         style="fill:#000000;stroke:none;stroke-width:0.18323821"
         inkscape:connector-curvature="0" />
      <path
         inkscape:export-ydpi="26.955259"
         inkscape:export-xdpi="26.955259"
         id="path848"
         d="m -28.776501,308.45711 c -0.04798,-0.12598 -0.06601,-9.34056 -0.04006,-20.47687 l 0.04719,-20.24782 h 10.811052 10.8110554 v 1.64915 1.64914 l -8.9328624,0.0475 -8.932863,0.0475 v 7.4174 7.41739 l 7.650197,0.0478 7.6501954,0.0479 0.05294,1.60333 0.05294,1.60334 h -7.7031454 c -6.03757,0 -7.704268,0.0495 -7.708355,0.22905 -0.0029,0.12597 -0.0034,3.73348 -0.0013,8.01667 l 0.0039,7.78762 9.071533,0.0475 9.0715364,0.0475 v 1.64743 1.64743 H -17.780904 c -8.558051,0 -10.927226,-0.0493 -10.995671,-0.22905 z"
         style="fill:#000000;stroke:none;stroke-width:0.18323821"
         inkscape:connector-curvature="0" />
      <path
         inkscape:export-ydpi="26.955259"
         inkscape:export-xdpi="26.955259"
         id="path846"
         d="m 6.5212054,267.63051 -1.673799,5.18159 c -0.920512,2.84995 -2.155132,6.66605 -2.744018,8.48011 -0.588888,1.81406 -1.85321097,5.73082 -2.80964797,8.70386 -0.95644203,2.97303 -2.65262703,8.24153 -3.76928003,11.70833 -1.11665,3.46679 -2.030368,6.45597 -2.030368,6.64248 3e-6,0.30614 0.168725,0.33952 1.734262,0.33952 1.466562,0 1.759768,-0.0498 1.899626,-0.32091 0.12667,-0.24558 3.69866903,-11.44831 4.178041,-13.10359 0.08755,-0.30236 0.563309,-0.31972 7.531838,-0.27492 l 7.4388236,0.0481 0.782381,2.38228 c 0.43017,1.31015 1.287441,3.98997 1.90531,5.95519 0.617863,1.96524 1.24833,3.96442 1.400947,4.44314 l 0.277503,0.87075 h 1.81746 c 1.635834,0 1.817976,-0.0336 1.817976,-0.33383 0,-0.29817 -2.363766,-7.72326 -9.809218,-30.81672 -1.283449,-3.98085 -2.511518,-7.81547 -2.729034,-8.52093 l -0.395325,-1.28261 -2.4117376,-0.0512 z m 2.378667,4.18631 c 0.06,0.0716 1.3242286,3.96431 2.8096476,8.65063 1.01097,3.34111 1.970664,6.90606 3.551203,11.17761 h -6.3851386 -6.38514 l 0.238228,-0.77876 c 1.936002,-6.32998 6.08855,-19.14818 6.1712,-19.04948 z"
         style="fill:#000000;stroke:none;stroke-width:0.18323821"
         inkscape:connector-curvature="0" />
      <path
         inkscape:export-ydpi="26.955259"
         inkscape:export-xdpi="26.955259"
         id="path842"
         d="m 28.760299,308.45711 c -0.048,-0.12598 -0.066,-9.34056 -0.04,-20.47687 l 0.0472,-20.24782 1.752542,-0.0521 c 1.495978,-0.0444 1.793449,-0.004 2.03204,0.27486 0.15372,0.17979 1.767469,2.96552 3.586099,6.19052 1.818635,3.22499 5.717075,10.11017 8.663195,15.30039 2.94613,5.19022 5.73855,10.11574 6.20537,10.94559 l 0.84877,1.50882 0.0916,-17.08407 0.0916,-17.08407 h 1.64915 1.64914 l 0.0466,20.48328 0.0466,20.4833 -1.87269,-0.0522 -1.87269,-0.0523 -4.78191,-8.42895 c -2.63006,-4.63593 -7.02374,-12.38356 -9.76374,-17.21696 l -4.981805,-8.788 v 17.26277 17.26276 h -1.6549 c -1.155221,0 -1.681231,-0.0692 -1.742141,-0.22905 z"
         style="fill:#000000;stroke:none;stroke-width:0.18323821"
         inkscape:connector-curvature="0" />
      <path
         inkscape:export-ydpi="26.955259"
         inkscape:export-xdpi="26.955259"
         id="path840"
         d="m 63.536075,288.21594 0.0466,-20.48352 h 1.74074 1.74078 v 20.43106 20.43107 l -1.78737,0.0524 -1.78736,0.0524 z"
         style="fill:#000000;stroke:none;stroke-width:0.18323821"
         inkscape:connector-curvature="0" />
      <path
         inkscape:export-ydpi="26.955259"
         inkscape:export-xdpi="26.955259"
         id="path838"
         d="m 86.827415,267.64084 c -2.18066,0 -2.27886,0.0167 -2.45153,0.41238 -0.0989,0.22675 -1.45139,4.37021 -3.00498,9.20771 -1.55358,4.83748 -4.43944,13.81222 -6.41305,19.944 -1.9736,6.13176 -3.54024,11.22627 -3.48144,11.32127 0.0587,0.095 0.89893,0.14911 1.86707,0.12041 l 1.7601,-0.0522 1.07745,-3.38998 c 0.59251,-1.86445 1.56911,-4.93578 2.17041,-6.82542 l 1.09347,-3.43597 h 7.40576 7.40626 l 1.18597,3.71089 c 0.65239,2.04082 1.63193,5.11215 2.17662,6.82542 l 0.99063,3.11506 1.863465,0.0522 c 1.5509,0.0435 1.86396,0.007 1.86396,-0.22014 0,-0.40351 -12.837325,-40.28869 -13.053465,-40.5567 -0.12983,-0.16105 -0.8598,-0.22893 -2.4567,-0.22893 z m 0.0641,3.6897 c 0.0156,-0.004 0.023,0.0715 0.0326,0.22324 0.0117,0.18674 1.42347,4.73876 3.13675,10.11566 1.71327,5.37689 3.11506,9.82099 3.11506,9.87589 0,0.0549 -2.84515,0.0997 -6.3221,0.0997 -3.47693,0 -6.32157,-0.0369 -6.32157,-0.0817 0,-0.0448 1.39259,-4.47685 3.09438,-9.84901 1.70179,-5.37216 3.13514,-9.93219 3.18534,-10.13375 0.0408,-0.1638 0.064,-0.24639 0.0796,-0.25011 z"
         style="fill:#000000;stroke:none;stroke-width:0.18323821"
         inkscape:connector-curvature="0" />
      <path
         inkscape:export-ydpi="26.955259"
         inkscape:export-xdpi="26.955259"
         id="path834"
         d="m -43.242699,262.69743 c -0.238258,-0.3855 2.045048,-6.11445 4.12784,-10.35699 1.347295,-2.74437 3.912658,-7.20793 5.141495,-8.94584 0.297807,-0.42118 0.870349,-1.23734 1.272323,-1.81367 1.616112,-2.31713 4.996336,-6.3597 7.679354,-9.1841 3.090285,-3.25313 10.133896,-8.94004 13.934799,-11.25075 10.42536743,-6.33799 19.9391994,-9.79338 31.378123,-11.39643 2.381383,-0.33373 3.613243,-0.37857 10.400184,-0.37857 6.786956,0 8.018806,0.0448 10.400196,0.37857 9.06345,1.27015 16.998,3.74503 24.96478,7.78682 13.42897,6.81291 24.59612,17.41356 32.19441,30.56121 2.273065,3.93313 5.225575,10.46082 6.160215,13.61952 0.24937,0.84271 0.24988,0.95953 0.005,1.05361 -0.40816,0.15663 -4.33275,0.12303 -4.588055,-0.0393 -0.12068,-0.0767 -0.50592,-0.89024 -0.85609,-1.80783 -6.37128,-16.69446 -18.78775,-30.57427 -34.78508,-38.8842 -7.67236,-3.98546 -16.56624,-6.69033 -25.34142,-7.70702 -10.029397,-1.16201 -20.66706,-0.10405 -30.3784746,3.02126 -14.472774,4.65761 -27.1145474,13.66743 -36.2898034,25.86383 -3.754241,4.99041 -7.180741,11.14212 -9.557077,17.15814 l -0.951686,2.40931 -2.396988,0.0511 c -1.509355,0.0322 -2.440393,-0.0192 -2.514195,-0.13861 z"
         style="fill:#fdc314;fill-opacity:1;stroke:none;stroke-width:0.18323821"
         inkscape:connector-curvature="0" />
      <path
         inkscape:export-ydpi="26.955259"
         inkscape:export-xdpi="26.955259"
         id="path832"
         d="m -37.583129,262.62012 c -0.130156,-0.33918 1.152743,-3.60273 2.677458,-6.81115 8.542258,-17.97523 23.74737,-31.38552 42.8960944,-37.83261 4.3123266,-1.45189 10.4237546,-2.73871 15.7379506,-3.31377 2.694916,-0.29162 11.183615,-0.29103 13.926101,9.5e-4 24.06859,2.56269 44.58425,15.93835 56.39919,36.77075 2.02721,3.57444 5.12749,10.62506 4.91522,11.17819 -0.0807,0.2104 -0.55916,0.26355 -2.35177,0.26132 -1.23773,-0.002 -2.33335,-0.0634 -2.43472,-0.13743 -0.10137,-0.074 -0.58879,-1.08287 -1.08318,-2.24184 -4.76731,-11.17606 -12.23666,-20.64567 -22.16445,-28.10001 -7.81438,-5.86745 -18.28859,-10.37138 -28.38416,-12.20525 -10.684706,-1.94088 -22.895473,-1.07881 -32.9315736,2.32496 -15.308919,5.19204 -27.7473654,14.89545 -36.2774634,28.30056 -1.674979,2.63224 -4.570428,8.21131 -5.409149,10.42257 -0.284634,0.75043 -0.607238,1.42499 -0.716897,1.49904 -0.109656,0.074 -1.212067,0.13588 -2.449795,0.13743 -1.761773,0.003 -2.271795,-0.0529 -2.348856,-0.25371 z"
         style="fill:#94d55b;fill-opacity:1;stroke:none;stroke-width:0.18323821"
         inkscape:connector-curvature="0" />
      <path
         inkscape:export-ydpi="26.955259"
         inkscape:export-xdpi="26.955259"
         id="path830"
         d="m -31.91352,262.59203 c -0.138747,-0.36156 0.533697,-1.97843 2.344836,-5.63806 6.512316,-13.15895 17.111448,-23.73757 30.39228043,-30.33346 6.97509097,-3.46416 14.10341257,-5.57277 22.17182057,-6.55861 4.020082,-0.49119 12.097681,-0.45171 16.033338,0.0784 8.11324,1.09273 15.13193,3.22814 21.9886,6.68995 14.15848,7.14837 25.57892,19.34529 31.68757,33.842 0.99011,2.3497 1.09615,2.22386 -1.82322,2.16378 l -2.47719,-0.051 -0.87811,-1.924 c -7.39171,-16.19554 -22.07712,-28.89935 -39.19279,-33.90426 -6.05107,-1.76944 -10.8123,-2.43812 -17.458956,-2.45199 -23.1727006,-2.88844 -47.42143,17.20048 -56.524102,35.34844 -0.629251,1.31015 -1.194398,2.5264 -1.255879,2.70277 -0.09877,0.28332 -0.390515,0.32066 -2.505388,0.32066 -1.995048,0 -2.411782,-0.0474 -2.50281,-0.2846 z"
         style="fill:#02aeee;fill-opacity:1;stroke:none;stroke-width:0.18323821"
         inkscape:connector-curvature="0" />
      <path
         inkscape:export-ydpi="26.955259"
         inkscape:export-xdpi="26.955259"
         id="path826"
         d="m 67.483805,254.28019 c 0.63591,0.0937 1.73501,0.60568 2.38213,1.34273 1.7115,1.94928 1.02307,5.37884 -1.30603,6.50634 -0.94705,0.45846 -2.65243,0.50047 -3.60294,0.0888 v -4e-5 c -0.78182,-0.33864 -1.58364,-1.07764 -1.96943,-1.8151 -0.35439,-0.67747 -0.46152,-1.21316 -0.47659,-1.65375 -0.0346,-1.01004 0.16181,-1.7412 0.50178,-2.65235 0.0804,-0.19153 -1.32018,-1.70952 -4.62026,-5.00747 l -4.73569,-4.73262 -0.83979,0.56676 c -0.92596,0.62492 -2.16862,1.11756 -2.77114,1.09859 l -0.70979,0.12943 c -0.2984,0.0866 -0.32067,0.59472 -0.32067,7.31755 v 7.22447 h -0.73296 -0.73295 l -1.2e-4,-7.22461 c 0,-6.72637 -0.0221,-7.23025 -0.32066,-7.30827 -1.00218,-0.13585 -0.58337,0.0116 -1.55534,-0.2989 -0.57828,-0.18486 -1.46727,-0.60295 -1.97551,-0.92909 -1.00283,-0.64352 -2.43573,-2.16952 -2.79384,-2.97537 -0.12316,-0.27715 -0.28271,-0.50391 -0.35456,-0.50391 -0.0718,0 -2.94791,0.99303 -6.391257,2.20674 -3.443348,1.2137 -5.750999,1.79419 -5.804408,1.74079 -0.0534,-0.0534 -0.35773,0.14947 0,0 l -0.293161,0.12694 c 0.116959,1.30402 -0.0752,2.68586 -1.09687,3.85231 l -0.62311,0.68027 1.274369,2.70534 c 0.700902,1.48793 1.803521,3.82068 2.450261,5.18388 0.64674,1.36321 1.17589,2.5286 1.17589,2.58978 0,0.18508 -0.833821,0.28415 -1.212479,0.14408 v -1e-5 c -0.241171,-0.0892 -1.103691,-1.72694 -2.69644,-5.11989 -1.288011,-2.7438 -2.194952,-4.94072 -2.251652,-5.07892 0,0 -1.272122,0.0888 -1.810274,0.10546 -0.302342,0.009 -0.879544,-0.13566 -1.282668,-0.3223 l -1.4e-5,5e-5 c -1.556591,-0.72068 -2.340022,-2.09783 -2.271328,-3.99266 l 0.0428,-1.18021 -7.209722,-3.93124 -7.2097256,-3.93125 -0.47144,0.44112 c -0.66543,0.62263 -1.922542,1.21776 -2.525572,1.19563 l -0.511204,-0.0188 -0.824585,0.0252 c -0.25195197,0.007 -0.81235497,-0.16324 -1.24533797,-0.37756 -0.88314203,-0.43715 -1.60875703,-1.28683 -1.97475203,-2.31243 -0.857547,-2.40299 0.735581,-5.2523 3.05227503,-5.459 l 0.99238597,-0.0778 0.792155,0.0727 c 1.370806,0.12585 2.713993,1.34113 3.145602,2.84608 l 0.151548,1.92034 c -0.03975,0.20634 0.288867,0.49211 1.041366,0.9056 0.604686,0.33226 3.8617436,2.11319 7.2379096,3.95761 1.310746,0.12936 5.513303,3.74009 6.413336,3.5352 0,-0.54616 1.780894,-1.53376 2.696882,-1.49557 l 0.998471,-0.0314 c 0.596834,-0.0188 1.672124,0.41207 2.549393,1.23266 l 0.859642,0.80409 6.176729,-2.15853 6.176715,-2.15852 -0.10004,-1.00426 c -0.0346,-0.85405 -0.0945,-1.29475 0.001,-2.11079 h 10e-6 c 0.46797,-3.86963 3.40104,-6.80109 7.30222,-7.2982 l 1.64914,0.0695 0.91619,0.0862 c 1.40741,0.13242 3.36445,1.18241 4.4811,2.40422 0.51792,0.56668 1.09513,1.33113 1.28269,1.69878 0.74972,1.84422 1.00367,3.45528 0.81794,5.32254 -0.11297,1.13626 -0.65548,2.5571 -1.32246,3.46364 l -0.4532,0.61598 4.76375,4.76376 c 4.2551,4.25509 4.80307,4.74272 5.13186,4.56676 1.20577,-0.54347 1.79165,-0.49577 2.94244,-0.377 z"
         style="fill:#bebebe;fill-opacity:1;stroke:none;stroke-width:0.18323821"
         inkscape:connector-curvature="0" />
    </g>
  </g>
</svg>
